<?xml version="1.0" encoding="UTF-8" standalone="no"?>
<!-- Created with Inkscape (http://www.inkscape.org/) -->

<svg
   version="1.1"
   id="svg2"
   xml:space="preserve"
   width="44"
   height="150"
   viewBox="0 0 44 150"
   sodipodi:docname="fh_aachen_logo.svg"
   inkscape:version="1.1.2 (0a00cf5339, 2022-02-04)"
   xmlns:inkscape="http://www.inkscape.org/namespaces/inkscape"
   xmlns:sodipodi="http://sodipodi.sourceforge.net/DTD/sodipodi-0.dtd"
   xmlns="http://www.w3.org/2000/svg"
   xmlns:svg="http://www.w3.org/2000/svg"><defs
     id="defs6" /><sodipodi:namedview
     id="namedview4"
     pagecolor="#ffffff"
     bordercolor="#666666"
     borderopacity="1.0"
     inkscape:pageshadow="2"
     inkscape:pageopacity="0.0"
     inkscape:pagecheckerboard="0"
     showgrid="false"
     inkscape:zoom="5.1733333"
     inkscape:cx="21.939433"
     inkscape:cy="75"
     inkscape:window-width="1920"
     inkscape:window-height="1011"
     inkscape:window-x="0"
     inkscape:window-y="0"
     inkscape:window-maximized="1"
     inkscape:current-layer="g8" /><g
     id="g8"
     inkscape:groupmode="layer"
     inkscape:label="fh_aachen_logo"
     transform="matrix(1.3333333,0,0,1.3333333,0,3.75e-6)"><g
       id="g10"><path
         d="M 20.941,0.75 H 33.273 V 37.746 H 20.941 Z"
         style="fill:#00b5ad;fill-opacity:1;fill-rule:nonzero;stroke:none"
         id="path12" /><path
         d="m 20.941,37.746 h 12.332 v 37 H 20.941 Z"
         style="fill:#ffffff;fill-opacity:1;fill-rule:nonzero;stroke:none"
         id="path14" /><path
         d="m 20.941,74.746 h 12.332 v 36.996 H 20.941 Z"
         style="fill:#1d1d1d;fill-opacity:1;fill-rule:nonzero;stroke:none"
         id="path16" /><path
         d="m 12.059,0.773 c -1.747,0 -1.141,2.602 -2.426,2.602 C 9.152,3.375 8.727,3.043 8.727,2.207 8.727,1.77 8.82,1.398 8.984,1.016 L 8.586,0.934 c -0.168,0.355 -0.27,0.8 -0.27,1.293 0,1.085 0.579,1.57 1.34,1.57 1.668,0 1.074,-2.594 2.43,-2.594 0.652,0 1.047,0.41 1.047,1.215 0,0.531 -0.137,0.965 -0.391,1.355 L 13.16,3.852 C 13.395,3.469 13.551,2.996 13.551,2.418 13.547,1.34 12.98,0.773 12.059,0.773 m 0.976,6.551 H 10.992 V 5.105 H 10.613 V 7.324 H 8.816 V 4.762 L 8.395,4.781 v 2.981 h 5.058 V 4.66 L 13.035,4.641 Z M 8.559,8.73 C 8.43,8.996 8.316,9.488 8.316,9.914 c 0,1.469 0.782,2.129 2.555,2.129 1.863,0 2.676,-0.648 2.676,-2.117 0,-0.453 -0.141,-0.918 -0.305,-1.219 l -0.383,0.074 c 0.164,0.301 0.266,0.668 0.266,1.09 0,1.168 -0.539,1.715 -2.254,1.715 -1.605,0 -2.129,-0.539 -2.129,-1.691 0,-0.418 0.098,-0.825 0.227,-1.102 z m 4.894,4.383 H 8.398 v 0.399 l 3.727,-0.008 0.539,-0.016 0.008,0.016 -0.461,0.297 -3.813,2.527 v 0.442 h 5.055 V 16.363 H 9.637 l -0.547,0.008 -0.008,-0.016 0.461,-0.296 3.91,-2.618 z m -0.418,7.301 h -2.043 v -2.219 h -0.379 v 2.219 H 8.816 v -2.562 l -0.421,0.019 v 2.981 h 5.058 V 17.75 l -0.418,-0.02 z m 0.418,1.754 H 8.398 v 0.445 h 5.055 z m -4.894,1.461 c -0.129,0.266 -0.243,0.758 -0.243,1.183 0,1.469 0.782,2.129 2.555,2.129 1.863,0 2.676,-0.648 2.676,-2.117 0,-0.453 -0.141,-0.918 -0.305,-1.222 l -0.383,0.074 c 0.164,0.304 0.266,0.668 0.266,1.094 0,1.168 -0.539,1.714 -2.254,1.714 -1.605,0 -2.129,-0.543 -2.129,-1.695 0,-0.418 0.098,-0.82 0.227,-1.098 z m 3.5,4.09 c -1.747,0 -1.141,2.601 -2.426,2.601 -0.481,0 -0.906,-0.328 -0.906,-1.164 0,-0.441 0.093,-0.812 0.257,-1.195 L 8.586,27.879 c -0.168,0.359 -0.27,0.805 -0.27,1.297 0,1.086 0.579,1.57 1.34,1.57 1.668,0 1.074,-2.598 2.43,-2.598 0.652,0 1.047,0.414 1.047,1.215 0,0.532 -0.137,0.965 -0.391,1.356 l 0.418,0.082 c 0.235,-0.387 0.391,-0.86 0.391,-1.438 -0.004,-1.078 -0.571,-1.644 -1.492,-1.644 m -1.153,6.426 c 1.672,0 2.121,0.554 2.121,1.664 v 1.203 H 8.828 v -1.196 c 0,-1.171 0.481,-1.671 2.078,-1.671 m 0,-0.465 c -1.793,0 -2.508,0.632 -2.508,2.125 v 1.652 h 5.055 v -1.66 c 0,-1.438 -0.703,-2.117 -2.547,-2.117 m 2.129,7.422 h -2.043 v -2.219 h -0.379 v 2.219 H 8.816 v -2.563 l -0.421,0.02 v 2.984 h 5.058 v -3.105 l -0.418,-0.02 z m 0.418,1.753 H 8.398 v 0.45 h 5.055 z m -0.43,3.879 H 8.398 v 0.446 h 5.055 v -2.934 l -0.43,-0.019 z m -3.125,1.86 c 0.86,0 1.129,0.406 1.129,1.195 v 1.164 h -2.23 v -1.164 c 0,-0.809 0.293,-1.195 1.101,-1.195 m 0,-0.453 c -1.054,0 -1.5,0.5 -1.5,1.648 v 1.609 h 5.055 V 50.953 H 11.41 v -1.164 c 0,-1.16 -0.492,-1.648 -1.512,-1.648 m 0,4.671 c 0.86,0 1.129,0.407 1.129,1.196 v 1.168 h -2.23 v -1.168 c 0,-0.809 0.293,-1.196 1.101,-1.196 m 0,-0.449 c -1.054,0 -1.5,0.5 -1.5,1.645 v 1.613 h 5.055 V 55.176 H 11.41 v -1.168 c 0,-1.16 -0.492,-1.645 -1.512,-1.645 m -1.171,6.325 v -0.024 l 0.519,-0.168 2.473,-0.883 v 2.145 L 9.246,58.863 Z m 4.726,-1.696 v -0.496 l -5.055,1.922 v 0.523 l 5.055,1.922 v -0.476 l -1.336,-0.481 v -2.437 z m -4.625,6.332 -0.43,0.016 v 2.98 h 5.055 V 65.875 H 11.062 V 63.73 h -0.406 v 2.145 H 8.828 Z m 2.098,4.539 c 1.699,0 2.191,0.438 2.191,1.551 0,1.121 -0.492,1.566 -2.191,1.566 -1.707,0 -2.184,-0.445 -2.184,-1.558 0,-1.121 0.477,-1.559 2.184,-1.559 m 0,-0.457 c -1.875,0 -2.61,0.547 -2.61,2.016 0,1.465 0.735,2.016 2.61,2.016 1.875,0 2.621,-0.559 2.621,-2.016 0,-1.469 -0.742,-2.016 -2.621,-2.016 M 8.398,78.152 11.68,76.359 h 1.773 V 75.91 H 11.68 L 8.398,74.137 v 0.496 l 2.368,1.25 0.48,0.234 v 0.02 l -0.48,0.242 -2.368,1.254 z m 0.43,0.524 -0.43,0.004 v 3.601 l 0.43,0.016 v -1.586 h 4.625 V 80.266 H 8.828 Z m 4.625,4.441 H 8.398 v 0.445 h 5.055 z m -1.394,1.371 c -1.747,0 -1.141,2.606 -2.426,2.606 -0.481,0 -0.906,-0.332 -0.906,-1.172 0,-0.438 0.093,-0.809 0.257,-1.192 L 8.586,84.648 c -0.168,0.36 -0.27,0.805 -0.27,1.297 0,1.086 0.579,1.571 1.34,1.571 1.668,0 1.074,-2.598 2.43,-2.598 0.652,0 1.047,0.414 1.047,1.215 0,0.531 -0.137,0.965 -0.391,1.355 l 0.418,0.082 c 0.235,-0.382 0.391,-0.855 0.391,-1.437 -0.004,-1.078 -0.571,-1.645 -1.492,-1.645 m -2.274,4.453 c 0.735,0 1.031,0.332 1.031,1.067 V 91.16 H 8.797 v -1.191 c 0,-0.707 0.281,-1.028 0.988,-1.028 M 9.766,88.484 c -0.922,0 -1.368,0.465 -1.368,1.485 v 1.636 h 5.055 V 91.16 H 11.18 v -1.172 l 2.273,-1.293 v -0.539 l -2.351,1.406 C 11.02,88.863 10.586,88.484 9.766,88.484 m 3.269,6.704 h -2.043 v -2.219 h -0.379 v 2.219 H 8.816 v -2.563 l -0.421,0.02 v 2.98 h 5.058 v -3.102 l -0.418,-0.019 z m -4.637,1.726 4.118,1.441 0.511,0.172 v 0.02 l -0.519,0.168 -4.113,1.445 v 0.492 l 5.058,-1.843 v -0.52 l -5.058,-1.84 v 0.465 z m 5.055,4.594 H 8.398 v 0.445 h 5.055 z m 0,1.707 H 8.398 v 0.398 l 3.727,-0.011 0.539,-0.012 0.008,0.012 -0.461,0.296 -3.813,2.532 v 0.437 h 5.055 v -0.406 H 9.637 l -0.547,0.012 -0.008,-0.016 0.461,-0.297 3.91,-2.617 z m -5.055,4.797 v 0.449 h 3.227 c 1.027,0 1.492,0.473 1.492,1.414 0,0.953 -0.453,1.426 -1.492,1.426 H 8.398 v 0.445 h 3.227 c 1.355,0 1.922,-0.691 1.922,-1.871 0,-1.172 -0.567,-1.859 -1.922,-1.859 H 8.398 Z"
         style="fill:#1d1d1d;fill-opacity:1;fill-rule:nonzero;stroke:none"
         id="path18" /><path
         d="M 5.895,74.734 H 0.836 v 0.825 h 2.863 l 0.539,-0.012 0.004,0.012 -0.449,0.3 -2.957,2.02 v 0.809 H 5.895 V 77.855 H 2.906 L 2.363,77.863 2.355,77.848 2.812,77.547 5.895,75.391 Z M 5.062,81.762 H 3.664 V 79.793 H 2.898 v 1.969 H 1.68 v -2.321 l -0.844,0.012 v 3.242 h 5.059 v -3.34 L 5.066,79.336 v 2.426 z m 0.833,1.859 H 0.836 v 0.93 h 2.031 v 2.058 H 0.836 v 0.93 h 5.059 v -0.93 H 3.723 v -2.058 h 2.172 z m -4.922,4.563 c -0.121,0.285 -0.223,0.765 -0.223,1.175 0,1.579 0.863,2.286 2.574,2.286 1.821,0 2.664,-0.715 2.664,-2.235 0,-0.437 -0.121,-0.914 -0.281,-1.246 L 4.93,88.273 c 0.129,0.289 0.215,0.625 0.215,1.02 0,0.988 -0.422,1.375 -1.813,1.375 -1.309,0 -1.727,-0.371 -1.727,-1.356 0,-0.394 0.079,-0.761 0.184,-1.027 z m 0.547,6 v -0.02 L 2.047,94.023 4.02,93.414 v 1.539 L 2.047,94.34 Z m 4.375,-1.34 v -1.047 l -5.059,1.812 v 1.114 l 5.059,1.8 V 95.531 L 4.809,95.195 V 93.172 Z M 1.52,99.234 V 99.211 L 2.047,99.07 4.02,98.465 V 100 L 2.047,99.387 Z M 5.895,97.891 V 96.844 L 0.836,98.66 v 1.113 l 5.059,1.801 v -0.996 l -1.086,-0.336 v -2.019 z m 0,6.082 H 0.836 v 0.929 h 2.031 v 2.059 H 0.836 v 0.93 h 5.059 v -0.93 H 3.723 v -2.059 h 2.172 z m -4.196,4.527 -0.863,0.02 v 3.23 h 5.059 v -0.93 H 3.812 v -1.929 l -0.816,-0.008 v 1.937 H 1.699 Z"
         style="fill:#1d1d1d;fill-opacity:1;fill-rule:nonzero;stroke:none"
         id="path20" /></g></g></svg>
